#!OML:ASF F:\VICON\USERDATA\INSTALL\rory3\rory3.ASF
:FULLY-SPECIFIED
:DEGREES
1121
root 0.674139 15.8103 -0.288804 -2.40064 -2.65808 1.01762
lowerback 14.1602 0.112504 -0.698034
upperback 0.769481 0.356755 4.29301
thorax -7.17545 0.270468 4.91385
lowerneck -11.6642 -7.98866 -11.9547
upperneck 25.5683 -10.1736 5.55811
head 11.1233 -5.17526 2.62719
rclavicle 1.03368e-014 3.02153e-014
rhumerus -12.6722 -40.2469 -31.6753
rradius 83.1164
rwrist 33.9859
rhand 13.9926 7.53071
rfingers 7.12502
rthumb 38.9025 -18.0172
lclavicle 1.03368e-014 3.02153e-014
lhumerus -119.673 -59.3819 155.063
lradius 99.2952
lwrist 39.4428
lhand 2.1848 7.85053
lfingers 7.12502
lthumb 27.6813 35.8335
rfemur -7.3007 12.0941 14.5987
rtibia 29.8201
rfoot -15.5669 -11.8116
rtoes -13.1119
lfemur -4.02322 -7.50702 -20.1775
ltibia 24.7371
lfoot -13.8261 6.38375
ltoes -11.1922
1122
root 0.675405 15.813 -0.300145 -2.3783 -2.62471 1.05926
lowerback 14.3584 0.0387468 -0.497831
upperback 0.791783 0.305329 4.44572
thorax -7.25818 0.242527 4.97827
lowerneck -11.717 -7.97912 -12.0467
upperneck 25.3376 -10.1284 5.5933
head 11.0501 -5.15633 2.65948
rclavicle -4.96962e-015 -2.38542e-014
rhumerus -12.6492 -40.0116 -31.4373
rradius 83.2756
rwrist 33.6681
rhand 13.7389 7.32748
rfingers 7.12502
rthumb 38.6633 -18.2882
lclavicle -4.96962e-015 -2.38542e-014
lhumerus -119.321 -59.1806 154.85
lradius 99.1458
lwrist 39.3595
lhand 2.25191 7.83768
lfingers 7.12502
lthumb 27.7455 35.8103
rfemur -7.38103 12.0691 14.5276
rtibia 29.825
rfoot -15.5294 -11.8226
rtoes -13.2018
lfemur -4.04744 -7.56541 -20.2207
ltibia 24.6235
lfoot -13.7466 6.39606
ltoes -11.3652
1123
root 0.673773 15.8165 -0.30973 -2.34909 -2.57711 1.05551
lowerback 14.5626 -0.0131451 -0.244295
upperback 0.816388 0.292534 4.59221
thorax -7.34495 0.231504 4.99795
lowerneck -11.8931 -7.981 -12.0468
upperneck 25.2075 -10.0936 5.56734
head 11.0308 -5.13797 2.64887
rclavicle 0 3.33958e-014
rhumerus -12.6379 -40.0658 -31.2456
rradius 83.4762
rwrist 33.4577
rhand 13.711 7.25709
rfingers 7.12502
rthumb 38.6369 -18.366
lclavicle 0 3.33958e-014
lhumerus -118.994 -59.0899 154.713
lradius 98.9701
lwrist 39.2933
lhand 2.3417 7.93013
lfingers 7.12502
lthumb 27.8313 35.8889
rfemur -7.43852 12.0852 14.5351
rtibia 29.8205
rfoot -15.464 -11.8881
rtoes -13.1436
lfemur -4.07022 -7.64637 -20.2016
ltibia 24.5171
lfoot -13.7109 6.42183
ltoes -11.534
1124
root 0.670598 15.8191 -0.321004 -2.32853 -2.56629 1.15461
lowerback 14.7866 -0.0390571 -0.126153
upperback 0.82428 0.291614 4.70429
thorax -7.46225 0.230859 5.05694
lowerneck -11.9596 -7.97566 -11.988
upperneck 25.0249 -10.0696 5.52753
head 10.9668 -5.12286 2.62626
rclavicle -1.78906e-015 1.27222e-014
rhumerus -12.5296 -40.2222 -31.1232
rradius 83.5603
rwrist 33.3303
rhand 13.8453 7.41741
rfingers 7.12502
rthumb 38.7637 -18.1699
lclavicle -1.78906e-015 1.27222e-014
lhumerus -118.718 -58.9498 154.585
lradius 98.8164
lwrist 39.202
lhand 2.28802 7.94183
lfingers 7.12502
lthumb 27.78 35.9089
rfemur -7.50402 12.1337 14.4269
rtibia 29.8147
rfoot -15.4833 -11.8615
rtoes -12.6937
lfemur -4.08659 -7.66501 -20.2876
ltibia 24.403
lfoot -13.6153 6.45512
ltoes -11.6601
1125
root 0.668354 15.8214 -0.330659 -2.29648 -2.56766 1.29325
lowerback 14.9471 -0.0807854 -0.0845712
upperback 0.856655 0.257589 4.85211
thorax -7.51525 0.216136 5.20432
lowerneck -11.9517 -7.96783 -12.0965
upperneck 24.744 -10.0256 5.55497
head 10.8645 -5.10762 2.66028
rclavicle 1.15295e-014 -9.54166e-015
rhumerus -12.2543 -40.3299 -31.0132
rradius 83.5666
rwrist 33.2876
rhand 13.8635 7.60402
rfingers 7.12502
rthumb 38.7808 -17.9785
lclavicle 1.15295e-014 -9.54166e-015
lhumerus -118.383 -58.7581 154.4
lradius 98.6793
lwrist 38.9491
lhand 2.29503 7.90314
lfingers 7.12502
lthumb 27.7867 35.8691
rfemur -7.59129 12.1915 14.2602
rtibia 29.8112
rfoot -15.4795 -11.837
rtoes -12.3825
lfemur -4.10597 -7.67959 -20.4253
ltibia 24.2944
lfoot -13.5419 6.52667
ltoes -11.6357
1126
root 0.666347 15.8241 -0.340397 -2.21991 -2.58234 1.36013
lowerback 15.0784 -0.105145 0.0528282
upperback 0.889853 0.2615 4.98833
thorax -7.55388 0.216089 5.27541
lowerneck -11.9986 -7.99244 -12.1466
upperneck 24.4432 -10.0373 5.59778
head 10.7685 -5.109 2.67999
rclavicle 1.35174e-014 2.38542e-014
rhumerus -12.1976 -40.4119 -30.8044
rradius 83.6932
rwrist 33.1488
rhand 13.8639 7.46188
rfingers 7.12502
rthumb 38.7812 -18.1205
lclavicle 1.35174e-014 2.38542e-014
lhumerus -118.152 -58.6802 154.338
lradius 98.4833
lwrist 38.6944
lhand 2.45983 8.01502
lfingers 7.12502
lthumb 27.9443 35.9554
rfemur -7.72945 12.1796 14.1618
rtibia 29.8028
rfoot -15.4029 -11.8028
rtoes -12.51
lfemur -4.18827 -7.70582 -20.4777
ltibia 24.2112
lfoot -13.476 6.59245
ltoes -11.2401
1127
root 0.665086 15.8256 -0.353046 -2.17986 -2.59899 1.35528
lowerback 15.3203 -0.127447 0.325224
upperback 0.922655 0.291884 5.07909
thorax -7.65609 0.224216 5.21619
lowerneck -12.1402 -8.02125 -11.9909
upperneck 24.2042 -10.0671 5.54202
head 10.6974 -5.10939 2.62554
rclavicle -1.37161e-014 -1.59028e-015
rhumerus -12.3271 -40.4741 -30.5513
rradius 83.8535
rwrist 32.943
rhand 13.8057 7.31579
rfingers 7.12502
rthumb 38.7263 -18.2821
lclavicle -1.37161e-014 -1.59028e-015
lhumerus -118.101 -58.6314 154.36
lradius 98.2883
lwrist 38.4849
lhand 2.49863 8.30066
lfingers 7.12502
lthumb 27.9814 36.235
rfemur -7.82812 12.127 14.1472
rtibia 29.7778
rfoot -15.2507 -11.7709
rtoes -12.982
lfemur -4.26235 -7.7167 -20.4525
ltibia 24.1633
lfoot -13.4032 6.60659
ltoes -11.0547
1128
root 0.662564 15.8283 -0.366758 -2.13326 -2.60108 1.3081
lowerback 15.5899 -0.165316 0.585545
upperback 0.952476 0.304925 5.20209
thorax -7.77573 0.225097 5.20401
lowerneck -12.2576 -7.99814 -11.8403
upperneck 23.9603 -10.0275 5.49542
head 10.6137 -5.07846 2.58696
rclavicle 3.97569e-015 -2.38542e-014
rhumerus -12.2163 -40.6083 -30.4083
rradius 83.8748
rwrist 32.8516
rhand 13.8142 7.27576
rfingers 7.12502
rthumb 38.7343 -18.3198
lclavicle 3.97569e-015 -2.38542e-014
lhumerus -117.955 -58.5062 154.232
lradius 98.1744
lwrist 38.31
lhand 2.461 8.42618
lfingers 7.12502
lthumb 27.9454 36.3664
rfemur -7.93439 12.0963 14.1844
rtibia 29.7613
rfoot -15.2079 -11.7133
rtoes -13.1619
lfemur -4.36833 -7.72288 -20.3702
ltibia 24.1357
lfoot -13.2973 6.61962
ltoes -11.1558
1129
root 0.65839 15.8316 -0.380393 -2.08131 -2.57179 1.29449
lowerback 15.8626 -0.237535 0.776801
upperback 0.986548 0.260847 5.31302
thorax -7.8876 0.200223 5.23153
lowerneck -12.4137 -7.95048 -11.6787
upperneck 23.7318 -9.95891 5.47388
head 10.5413 -5.0302 2.55877
rclavicle 5.1684e-015 3.18055e-014
rhumerus -11.905 -40.7767 -30.4612
rradius 83.842
rwrist 32.8489
rhand 13.928 7.29757
rfingers 7.12502
rthumb 38.8416 -18.2676
lclavicle 5.1684e-015 3.18055e-014
lhumerus -117.586 -58.3206 153.845
lradius 98.075
lwrist 38.1934
lhand 2.37783 8.44847
lfingers 7.12502
lthumb 27.8659 36.4016
rfemur -8.05281 12.0688 14.2022
rtibia 29.7874
rfoot -15.1907 -11.7224
rtoes -13.2818
lfemur -4.47815 -7.74766 -20.3167
ltibia 24.0893
lfoot -13.2245 6.63736
ltoes -11.4486
